<svg xmlns="http://www.w3.org/2000/svg" width="57" height="57" viewBox="0 0 57 57">
  <g id="Icon_feather-headphones" data-name="Icon feather-headphones" transform="translate(-3 -3)">
    <path id="Path_1" data-name="Path 1" d="M4.5,49.04V31.224a27,27,0,0,1,54,0V49.04" transform="translate(0 0)" fill="none" stroke="#7745ff" stroke-linecap="round" stroke-linejoin="round" stroke-width="3"/>
    <path id="Path_2" data-name="Path 2" d="M58.5,36.767a6.159,6.159,0,0,1-6,6.307h-3a6.159,6.159,0,0,1-6-6.307v-9.46A6.159,6.159,0,0,1,49.5,21h9Zm-54,0a6.159,6.159,0,0,0,6,6.307h3a6.159,6.159,0,0,0,6-6.307v-9.46A6.159,6.159,0,0,0,13.5,21h-9Z" transform="translate(0 15.427)" fill="none" stroke="#7745ff" stroke-linecap="round" stroke-linejoin="round" stroke-width="3"/>
  </g>
</svg>
